PathFileType	4	(X/Y/Z)	 s02c0302.trc
DataRate	CameraRate	NumFrames	NumMarkers	Units	OrigDataRate	OrigDataStartFrame	OrigNumFrames
200	200	5	51	mm	200	1501	2000
Frame#	Time	racr			lacr			c7			jug			rlel			rdr			llel			ldr			s2			lic			ric			lasi			rasi			rpsi			lpsi			rgt			lgt			rth1			rth2			rth3			rth4			rlfc			rmfc			rsh1			rsh2			rsh3			rsh4			rlmal			rmmal			rcal			rtoe			rmt5			rmt1			lth1			lth2			lth4			lth3			llfc			lmfc			lsh1			lsh2			lsh3			lsh4			llmal			lmmal			lcal			ltoe			lmt5			SBIKE			LBIKE			RBIKE			
		X1	Y1	Z1	X2	Y2	Z2	X3	Y3	Z3	X4	Y4	Z4	X5	Y5	Z5	X6	Y6	Z6	X7	Y7	Z7	X8	Y8	Z8	X9	Y9	Z9	X10	Y10	Z10	X11	Y11	Z11	X12	Y12	Z12	X13	Y13	Z13	X14	Y14	Z14	X15	Y15	Z15	X16	Y16	Z16	X17	Y17	Z17	X18	Y18	Z18	X19	Y19	Z19	X20	Y20	Z20	X21	Y21	Z21	X22	Y22	Z22	X23	Y23	Z23	X24	Y24	Z24	X25	Y25	Z25	X26	Y26	Z26	X27	Y27	Z27	X28	Y28	Z28	X29	Y29	Z29	X30	Y30	Z30	X31	Y31	Z31	X32	Y32	Z32	X33	Y33	Z33	X34	Y34	Z34	X35	Y35	Z35	X36	Y36	Z36	X37	Y37	Z37	X38	Y38	Z38	X39	Y39	Z39	X40	Y40	Z40	X41	Y41	Z41	X42	Y42	Z42	X43	Y43	Z43	X44	Y44	Z44	X45	Y45	Z45	X46	Y46	Z46	X47	Y47	Z47	X48	Y48	Z48	X49	Y49	Z49	X50	Y50	Z50	X51	Y51	Z51	
1501	7.5050	766.460324	1199.405515	-145.655574	725.591916	1260.267674	-493.446462	753.372458	1269.157625	-321.558852	669.181285	1152.228330	-319.033393	653.682907	1001.793497	-6.762795	739.205653	846.858556	-105.533420	592.877349	1026.076205	-600.875330	726.653875	866.918085	-515.711429	216.942405	1199.463920	-255.053218	330.603793	1206.838888	-412.360897	350.701880	1143.865236	-123.563285	365.372330	1163.154011	-400.130281	388.879587	1107.175420	-159.361838	244.158814	1217.140781	-208.144108	241.045857	1241.816998	-289.120441	298.620250	1059.448387	-98.964414	282.652972	1130.149377	-454.567244	338.527844	975.849142	-98.397508	377.187816	896.124174	-100.706113	374.588335	811.269673	-84.404829	407.927951	901.261242	-121.979124	376.374476	673.978518	-125.144982	366.605089	662.441630	-232.999625	330.443700	577.955304	-107.358429	311.087700	492.368707	-124.778697	255.461705	426.697530	-123.319449	327.108873	488.358800	-160.991042	193.508145	324.465052	-132.498582	212.806190	340.697119	-210.050827	113.039783	340.225606	-176.446418	301.843254	122.680538	-190.261552	217.999081	188.763930	-126.916173	243.207052	183.389955	-235.394411	405.003457	1064.395570	-472.524747	486.268707	1032.382383	-473.414769	505.588155	1057.627400	-455.238195	540.496176	962.999457	-483.554971	621.165908	899.071213	-468.376765	625.351347	864.138901	-357.860224	576.358667	811.965573	-486.381475	536.142321	736.128182	-475.989878	460.088856	687.488390	-481.421198	553.488122	722.187239	-441.151685	370.716919	609.343606	-472.227005	387.513940	598.922947	-395.696883	288.033259	598.150046	-436.849621	519.756853	428.237279	-435.438973	420.586104	468.270567	-499.397875	-126.198730	872.688433	-307.445165	37.263266	87.050746	-514.250727	33.578848	83.609324	-114.235336	
1502	7.5100	766.602471	1200.597872	-148.562947	723.469262	1257.766601	-495.584594	752.395064	1268.951354	-324.865555	668.284705	1151.670696	-320.339762	654.107090	1002.964412	-8.708112	739.317937	846.757071	-105.350105	585.886369	1024.189876	-598.634172	725.471109	868.484378	-516.946752	217.501376	1203.830933	-254.147292	330.367551	1207.840684	-411.975613	350.322892	1147.857802	-122.505951	364.275795	1164.015791	-399.331277	388.500824	1110.415326	-157.460424	244.342468	1221.132191	-207.446384	240.878607	1244.928184	-288.583780	297.331972	1063.519880	-97.472634	281.401439	1131.388298	-452.451879	339.247471	978.736551	-97.768600	379.470160	899.714540	-99.375884	378.325799	814.848492	-83.168089	410.095694	905.465753	-120.513574	381.684938	677.433246	-123.689089	372.152687	665.996984	-231.914454	333.794369	581.721795	-106.550657	311.897639	496.711044	-124.159051	254.308530	432.944528	-122.511750	327.703033	492.457746	-160.422831	188.716465	331.882185	-131.882219	208.860783	348.021030	-209.824697	108.710861	349.244167	-176.584439	292.791014	127.572349	-190.672136	210.360297	195.483302	-126.998475	235.960152	189.882776	-235.301393	402.650550	1063.317751	-472.201847	483.300873	1029.836676	-473.802559	503.289164	1054.830937	-455.952336	536.190098	959.413828	-484.145061	616.973036	895.013033	-469.198039	621.750063	858.665446	-360.756803	571.858046	805.962347	-488.556065	533.213266	729.226063	-477.103395	458.153222	678.828715	-481.706293	550.598964	715.547497	-441.353380	370.454552	599.953503	-472.055841	386.958354	589.712888	-395.745867	287.671334	584.390027	-437.391493	527.493668	426.458368	-435.278140	426.909307	461.372825	-499.969833	-126.163706	872.684880	-307.552270	37.287185	86.993233	-514.259598	33.394437	83.856369	-114.158630	
1503	7.5150	766.736788	1201.847157	-151.135700	721.447154	1255.400509	-497.893988	751.437474	1268.839368	-327.787126	667.586878	1151.088445	-321.549472	654.467367	1004.179287	-10.479492	739.453530	846.616242	-105.564609	579.144597	1022.067852	-595.805551	723.997805	868.934148	-516.530897	216.240650	1206.136314	-253.008002	329.365250	1208.482371	-411.137156	350.048877	1151.714699	-121.601056	363.176724	1164.615093	-398.557273	389.391999	1113.996217	-154.923745	244.503785	1224.947026	-206.821934	240.395763	1247.735656	-288.044817	296.175996	1067.367460	-96.095222	280.050056	1132.179455	-450.527864	340.309851	981.726234	-97.327510	382.144545	903.532912	-98.495684	382.616560	818.615418	-82.245000	412.859272	909.683586	-119.355505	387.302183	681.157439	-122.330576	378.835636	669.727268	-230.349259	337.491804	585.654353	-105.764955	313.007412	501.303226	-123.641164	253.510407	439.368344	-122.026506	328.583831	496.786748	-159.910365	183.954632	339.611038	-131.325746	205.159074	355.849746	-209.560567	104.390054	358.352544	-176.547501	284.465249	133.499486	-190.482401	203.014277	202.729160	-127.010071	228.903159	196.618600	-235.272125	400.202432	1061.743340	-471.978247	480.194726	1026.706508	-474.324489	500.790163	1051.349445	-456.842828	531.545872	955.086004	-484.182381	610.304515	888.550574	-471.663680	616.183272	853.334529	-362.638214	566.767996	799.038878	-490.323442	529.716760	721.483548	-478.065379	455.728691	669.433597	-482.205476	547.370375	708.547951	-442.327538	369.859392	589.757881	-471.559561	386.266382	579.783081	-395.342836	287.489592	570.273720	-437.075782	535.076441	424.365215	-436.009962	432.383370	454.426165	-500.472218	-126.122372	872.678949	-307.557671	37.266500	86.952136	-514.262623	33.567713	83.529512	-114.213867	
1504	7.5200	766.884771	1203.285826	-153.368300	719.289199	1252.948865	-499.885628	750.499870	1268.758790	-330.513987	666.645850	1150.765079	-322.302825	654.521663	1005.360837	-12.218491	739.343909	846.476047	-105.702704	572.988257	1019.925084	-592.758497	722.470577	869.502075	-516.029697	215.773084	1208.788451	-252.100418	328.681212	1208.856866	-410.603295	349.744818	1155.375228	-121.125987	362.085872	1164.945428	-397.811512	389.087215	1116.971243	-153.999361	244.517074	1228.656780	-206.356877	245.064588	1249.669572	-289.468961	295.401809	1070.699613	-95.298600	278.704595	1132.740904	-448.849798	342.128896	984.732607	-96.587903	385.350812	907.234216	-98.069422	387.889832	822.673318	-81.169226	416.025159	914.162358	-118.716410	393.315115	685.155666	-121.131592	385.108147	673.603695	-229.434354	341.710486	589.761877	-105.083736	314.533099	506.143961	-123.022451	253.138146	446.110628	-121.342348	329.751990	501.316326	-159.450954	179.439784	347.703326	-130.510346	201.610830	363.992795	-209.236712	100.348734	367.772981	-176.493363	276.572773	140.147069	-190.424172	196.047762	210.383229	-126.899987	222.041221	203.926961	-235.347073	397.569445	1059.821728	-471.820755	476.759539	1023.108844	-474.963474	497.847225	1047.252446	-458.050009	526.518575	950.366171	-485.235337	601.811081	881.904007	-474.140140	611.349305	846.197429	-364.821234	561.148530	791.286171	-491.755042	525.810241	712.934496	-478.787310	453.025320	659.353719	-482.351717	543.832307	700.839187	-443.009274	369.086087	578.998843	-470.510788	385.409471	569.159384	-394.326746	286.686203	555.291992	-435.428384	541.557762	421.758119	-436.603110	437.256910	446.731444	-500.774093	-126.153128	872.640000	-307.738751	37.260509	86.869179	-514.263620	33.546349	83.531119	-114.213696	
1505	7.5250	766.962802	1205.069596	-155.128011	717.160870	1250.587307	-501.638617	749.610861	1268.806556	-332.861710	665.557299	1150.793932	-322.607807	654.485085	1006.449696	-14.037168	739.167562	846.325611	-105.952530	567.271142	1017.904418	-589.588292	720.991979	869.922672	-515.855797	214.097361	1211.839854	-251.003200	327.674464	1208.980310	-410.076780	349.468192	1158.684130	-120.811778	361.013994	1165.000306	-397.097236	388.921383	1119.871605	-153.229432	244.455685	1232.293961	-205.915901	251.826656	1250.114948	-290.422432	294.658277	1073.968109	-95.143816	277.174753	1132.822271	-447.466617	344.436693	987.715799	-96.264507	389.023252	911.259283	-97.855878	393.067158	826.641133	-80.969756	419.649854	918.692420	-118.352704	400.156959	689.168315	-120.176720	391.389205	677.552960	-228.670466	346.233927	593.982720	-104.344841	316.597769	511.247779	-122.393861	253.182175	453.271801	-120.570571	331.155896	506.283041	-159.147617	175.329099	356.246561	-129.682786	198.597924	372.607099	-208.706320	96.651231	377.987754	-176.344407	269.034612	147.459930	-190.252622	189.724542	218.733444	-126.900782	215.502324	211.763546	-235.402417	394.721928	1057.483620	-471.818472	473.062571	1019.162116	-475.681793	494.941445	1042.845032	-459.126331	521.524971	945.313932	-485.922544	596.700035	874.750369	-474.671288	605.330948	840.277139	-366.701898	555.125851	782.748084	-493.087890	521.716039	703.751506	-479.262150	450.482805	648.305173	-482.540667	540.077532	692.572027	-444.269622	368.584592	567.598936	-469.197508	385.395791	557.492720	-393.111144	287.607138	539.519934	-435.089091	547.546589	417.792998	-437.384843	442.070030	438.340957	-501.049753	-126.183901	872.574025	-307.884380	37.222935	86.792236	-514.236909	33.365903	83.820427	-114.192513	
